<?xml version="1.0" encoding="UTF-8" standalone="no"?>
<!DOCTYPE svg PUBLIC "-//W3C//DTD SVG 1.1//EN" "http://www.w3.org/Graphics/SVG/1.1/DTD/svg11.dtd">
<svg fill="white" width="100%" height="100%" viewBox="0 0 2435 368" version="1.1" xmlns="http://www.w3.org/2000/svg" xmlns:xlink="http://www.w3.org/1999/xlink" xml:space="preserve" xmlns:serif="http://www.serif.com/" style="fill-rule:evenodd;clip-rule:evenodd;stroke-linejoin:round;stroke-miterlimit:2;">
	<g transform="matrix(1,0,0,1,-2272.81,-3234.65)">
		<g>
			<path d="M2343.77,3595.05L2272.86,3595.05C2272.75,3593.31 2272.86,3241.3 2272.86,3241.3L2522.57,3447.37C2522.57,3447.37 2522.57,3272.63 2522.57,3241.3L2593.48,3241.3L2593.48,3595.05C2591.95,3593.85 2561.61,3568.61 2522.57,3536.1C2448.73,3474.62 2343.77,3387.14 2343.77,3387.14L2343.77,3595.05Z" style="fill-rule:nonzero;"/>
			<g transform="matrix(1,0,0,1,2113.52,0)">
				<path d="M2343.77,3595.05L2272.86,3595.05C2272.75,3593.31 2272.86,3241.3 2272.86,3241.3L2522.57,3447.37C2522.57,3447.37 2522.57,3272.63 2522.57,3241.3L2593.48,3241.3L2593.48,3595.05C2591.95,3593.85 2561.61,3568.61 2522.57,3536.1C2448.73,3474.62 2343.77,3387.14 2343.77,3387.14L2343.77,3595.05Z" style="fill-rule:nonzero;"/>
			</g>
			<g transform="matrix(1,0,0,1,-28.448,0)">
				<g transform="matrix(1,0,0,1,1063.42,0)">
					<path d="M2343.78,3595.05L2272.86,3595.05C2272.75,3593.31 2272.86,3241.3 2272.86,3241.3L2522.57,3447.37C2522.57,3447.37 2522.87,3272.63 2522.87,3241.3L2593.48,3241.3L2593.48,3595.05C2589.07,3591.58 2343.77,3387.14 2343.77,3387.14L2343.78,3595.05Z" style="fill-rule:nonzero;"/>
				</g>
				<path d="M3586.29,3241.3C3586.29,3241.3 3728.06,3241.22 3729.67,3241.22C3808.81,3241.22 3872.39,3305.47 3872.39,3384.6C3872.39,3440.5 3840.66,3488.98 3794.14,3512.62L3794,3512.76L3836.4,3595.05L3765.44,3595.05L3727.32,3528.46L3656.9,3528.46C3656.9,3528.46 3586.28,3429.57 3586.29,3427.88C3586.34,3417.2 3586.29,3241.3 3586.29,3241.3ZM3656.9,3461.87L3656.9,3307.81L3729.49,3307.81C3769.56,3307.81 3802.09,3345.43 3802.09,3385.5C3802.09,3425.57 3769.56,3461.87 3729.49,3461.87L3656.9,3461.87Z"/>
			</g>
			<path d="M2877.99,3374.06L2877.99,3440.65L2734.5,3440.65L2734.41,3528.46L2877.99,3528.46L2877.99,3595.05L2664.08,3595.05L2664.08,3241.3L2877.99,3241.3L2877.99,3307.81L2734.5,3307.81L2734.5,3374.06L2877.99,3374.06Z" style="fill-rule:nonzero;"/>
			<g transform="matrix(1,0,0,1,-23.1618,0)">
				<path d="M3862.88,3595.05L4046.78,3241.3C4046.78,3241.3 4225.94,3586.95 4229.97,3595.05L4161.53,3595.05L4135.38,3544.2L3957.19,3544.2L3931.32,3595.05L3862.88,3595.05ZM4046.43,3374.06L3990.09,3479.55L4102.13,3479.55L4046.43,3374.06Z" style="fill-rule:nonzero;"/>
			</g>
			<g transform="matrix(1,0,0,1,-21.1609,0)">
				<rect x="4265.95" y="3241.3" width="70.946" height="353.75" style="fill-rule:nonzero;"/>
			</g>
			<g transform="matrix(1.03748,0,0,1.03748,-122.272,-128.032)">
				<path d="M3099.08,3241.22C3196.72,3241.22 3276,3320.49 3276,3418.14C3276,3515.78 3196.72,3595.05 3099.08,3595.05C3001.44,3595.05 2922.17,3515.78 2922.17,3418.14C2922.17,3320.49 3001.44,3241.22 3099.08,3241.22ZM3099.08,3306.18C3161.04,3306.18 3211.34,3356.35 3211.34,3418.14C3211.34,3479.93 3161.04,3530.09 3099.08,3530.09C3037.12,3530.09 2986.82,3479.93 2986.82,3418.14C2986.82,3356.35 3037.12,3306.18 3099.08,3306.18Z"/>
			</g>
		</g>
	</g>
</svg>
